<?xml version="1.0" encoding="utf-8"?>
<!-- Generator: Adobe Illustrator 24.1.1, SVG Export Plug-In . SVG Version: 6.00 Build 0)  -->
<svg version="1.1" id="Layer_1" xmlns="http://www.w3.org/2000/svg" xmlns:xlink="http://www.w3.org/1999/xlink" x="0px" y="0px"
	 viewBox="0 0 92 92" style="enable-background:new 0 0 92 92;" xml:space="preserve">
<style type="text/css">
	.st0{fill:#6611DD;}
	.st1{fill:#FFFFFF;}
</style>
<path class="st0" d="M46,72.2c-13.2-4.9-20.5-13.5-21.8-25.9c-0.5-3.8-0.7-7.4-0.7-11.1l0.1-9c9.3,0,16.8-2.9,22.3-8.5
	c5.7,5.7,13.1,8.5,22.4,8.5l0.2,9c0,3.6-0.3,7.7-0.8,12.3c-0.5,4.6-2.4,9.1-5.6,13.7C59,65.8,53.5,69.5,46,72.2z"/>
<path class="st1" d="M40.3,56.5c0.1,0,5.5-3.7,16.3-11.2c0.2-0.1,0.3-0.3,0.3-0.4c0-0.2-0.1-0.4-0.3-0.5
	C45.9,37,40.5,33.3,40.3,33.3c-0.4,0-0.6,0.2-0.6,0.6V56C39.8,56.4,40,56.5,40.3,56.5z"/>
</svg>
